<svg id="svg" version="1.1" xmlns="http://www.w3.org/2000/svg" xmlns:xlink="http://www.w3.org/1999/xlink" width="400" height="400" viewBox="0, 0, 400,400"><g id="svgg"><path id="path0" d="M21.906 38.221 C 21.911 38.382,24.229 41.505,27.058 45.161 C 33.029 52.877,77.863 111.482,110.065 153.666 C 122.296 169.687,137.956 190.186,144.866 199.218 C 151.775 208.250,157.559 215.859,157.719 216.125 C 158.008 216.609,146.853 229.467,65.885 321.983 C 46.315 344.344,29.982 363.039,29.590 363.529 L 28.878 364.418 56.179 364.410 L 83.480 364.402 107.158 337.333 C 166.037 270.021,183.482 250.213,183.788 250.322 C 183.969 250.387,188.488 256.158,193.830 263.148 C 199.173 270.137,218.473 295.386,236.719 319.257 C 254.966 343.128,270.273 363.055,270.735 363.540 L 271.575 364.421 326.824 364.322 L 382.073 364.223 376.118 356.403 C 364.637 341.328,337.216 305.090,296.380 251.026 C 273.720 221.026,251.837 192.082,247.751 186.706 C 243.665 181.329,240.311 176.649,240.298 176.304 C 240.275 175.701,249.564 165.001,325.616 78.035 L 360.518 38.123 333.447 38.023 L 306.377 37.922 305.388 38.909 C 304.844 39.452,284.252 62.899,259.629 91.014 C 235.005 119.128,214.683 142.131,214.469 142.131 C 214.094 142.131,207.323 133.244,158.087 68.133 L 135.247 37.928 78.572 37.928 C 47.400 37.928,21.900 38.060,21.906 38.221 M128.626 81.720 C 133.908 88.710,158.122 120.733,182.435 152.884 C 206.748 185.034,234.623 221.896,244.379 234.800 C 254.135 247.703,270.852 269.785,281.528 283.871 C 292.204 297.957,304.587 314.300,309.045 320.189 C 313.650 326.274,317.061 331.127,316.945 331.431 C 316.610 332.303,286.910 332.211,286.034 331.335 C 285.688 330.988,284.319 329.273,282.992 327.523 C 276.299 318.692,140.456 141.095,103.103 92.341 C 93.491 79.796,85.727 69.369,85.850 69.170 C 85.982 68.956,92.773 68.850,102.548 68.911 L 119.023 69.013 128.626 81.720 " stroke="none" fill="#fbfbfb" fill-rule="evenodd"></path><path id="path1" d="M20.723 37.959 C 20.723 38.191,38.363 61.475,59.922 89.701 C 81.481 117.927,104.341 147.869,110.721 156.239 C 117.101 164.609,124.182 173.832,126.456 176.735 C 131.402 183.048,154.405 213.084,155.844 215.107 L 156.856 216.529 92.309 290.273 C 56.808 330.832,27.761 364.195,27.761 364.413 C 27.761 364.677,37.191 364.809,56.039 364.809 L 84.316 364.809 98.756 348.299 C 106.698 339.218,119.157 325.010,126.441 316.725 C 145.135 295.463,159.202 279.401,171.820 264.907 C 177.811 258.025,182.913 252.176,183.157 251.908 C 183.501 251.531,184.051 252.016,185.596 254.059 C 189.230 258.861,193.244 264.070,196.669 268.426 C 198.528 270.792,204.252 278.270,209.387 285.044 C 223.550 303.725,253.542 342.904,260.392 351.672 C 263.735 355.951,267.401 360.658,268.537 362.131 L 270.603 364.809 326.699 364.809 C 374.744 364.809,382.796 364.730,382.796 364.257 C 382.796 363.954,368.513 344.819,351.056 321.735 C 333.599 298.652,311.640 269.560,302.258 257.087 C 284.604 233.615,279.164 226.450,269.159 213.490 C 262.173 204.440,241.251 176.480,241.251 176.194 C 241.251 176.084,251.390 164.416,263.781 150.265 C 345.758 56.646,361.500 38.598,361.612 38.098 C 361.721 37.614,357.832 37.538,333.460 37.544 L 305.181 37.551 284.566 61.102 C 273.228 74.055,260.752 88.260,256.843 92.669 C 250.293 100.056,235.668 116.823,220.947 133.822 C 217.641 137.639,214.809 140.762,214.653 140.762 C 214.336 140.762,204.427 127.920,193.537 113.392 C 182.860 99.150,144.345 48.262,139.897 42.522 L 136.035 37.537 78.379 37.537 C 37.364 37.537,20.723 37.659,20.723 37.959 M171.470 85.459 C 191.247 111.602,208.925 135.000,210.753 137.455 C 212.581 139.910,214.283 141.879,214.535 141.829 C 214.787 141.780,235.428 118.382,260.405 89.834 L 305.817 37.928 333.431 37.928 L 361.046 37.928 360.046 39.003 C 359.497 39.594,332.604 70.342,300.286 107.331 C 267.967 144.321,241.195 174.952,240.792 175.401 C 240.066 176.212,240.228 176.437,265.159 209.418 C 299.148 254.381,370.333 348.469,377.030 357.283 L 382.452 364.418 326.745 364.418 L 271.039 364.418 227.535 307.527 C 203.608 276.237,183.842 250.643,183.609 250.652 C 183.377 250.661,160.841 276.251,133.529 307.518 L 83.871 364.368 56.134 364.393 L 28.397 364.418 29.408 363.343 C 34.876 357.525,157.571 216.709,157.490 216.345 C 157.374 215.833,150.732 207.120,71.555 103.617 C 44.329 68.025,21.919 38.685,21.756 38.416 C 21.519 38.026,32.967 37.928,78.485 37.928 L 135.511 37.928 171.470 85.459 M86.022 69.430 C 86.022 69.553,92.039 77.515,99.395 87.124 C 125.455 121.170,231.613 259.956,258.784 295.503 L 286.356 331.574 301.564 331.574 C 314.603 331.574,316.755 331.493,316.646 331.010 C 316.577 330.701,308.690 320.103,299.120 307.459 C 256.051 250.559,187.295 159.625,154.693 116.446 L 119.062 69.255 102.542 69.231 C 93.456 69.219,86.022 69.308,86.022 69.430 M126.664 80.841 C 131.241 86.808,143.544 103.022,154.003 116.870 C 171.899 140.563,178.187 148.867,206.002 185.533 C 212.202 193.705,222.553 207.429,229.005 216.031 C 243.949 235.957,261.287 258.802,264.910 263.343 C 266.454 265.279,268.745 268.270,270.000 269.990 C 273.269 274.469,289.082 295.530,303.028 313.978 C 309.612 322.688,315.132 330.034,315.294 330.303 C 315.528 330.691,312.612 330.787,301.196 330.768 L 286.804 330.744 278.983 320.568 C 264.534 301.767,230.956 257.883,223.731 248.356 C 219.793 243.165,214.002 235.615,210.862 231.580 C 203.244 221.790,187.443 201.164,181.428 193.157 C 174.532 183.978,147.333 148.420,139.406 138.221 C 135.729 133.490,130.534 126.716,127.861 123.167 C 125.188 119.619,115.033 106.279,105.293 93.523 C 95.554 80.767,87.586 70.254,87.586 70.160 C 87.586 70.067,94.506 69.990,102.963 69.990 L 118.341 69.990 126.664 80.841 " stroke="none" fill="#969696" fill-rule="evenodd"></path><path id="path2" d="M94.330 69.110 C 98.793 69.173,106.095 69.173,110.557 69.110 C 115.020 69.047,111.369 68.996,102.444 68.996 C 93.519 68.996,89.868 69.047,94.330 69.110 " stroke="none" fill="#b4b4b4" fill-rule="evenodd"></path><path id="path3" d="" stroke="none" fill="#bcbcbc" fill-rule="evenodd"></path><path id="path4" d="M293.914 331.866 C 298.039 331.930,304.901 331.930,309.163 331.867 C 313.424 331.803,310.049 331.752,301.662 331.752 C 293.275 331.751,289.788 331.803,293.914 331.866 " stroke="none" fill="#c4c4c4" fill-rule="evenodd"></path></g></svg>